<?xml version="1.0" encoding="UTF-8"?>
<svg width="20px" height="23px" viewBox="0 0 20 23" version="1.1" xmlns="http://www.w3.org/2000/svg" xmlns:xlink="http://www.w3.org/1999/xlink">
    <!-- Generator: Sketch 44.1 (41455) - http://www.bohemiancoding.com/sketch -->
    <title>notificações</title>
    <desc>Created with Sketch.</desc>
    <defs></defs>
    <g id="REDE-SOCIAL----APP-" stroke="none" stroke-width="1" fill="none" fill-rule="evenodd">
        <g id="Notificações-Default" transform="translate(-310.000000, -625.000000)" fill="#FFFFFF">
            <g id="tab-bar" transform="translate(0.000000, 617.000000)">
                <g id="notificações" transform="translate(310.000000, 8.000000)">
                    <path d="M2.56,18.6043422 L3.59703704,17.5312644 C3.74518519,17.3776756 3.81925926,17.1732311 3.81925926,16.9690422 L3.81925926,9.35323111 C3.81925926,6.49126444 5.67111111,3.98656444 8.33777778,3.24545333 C8.63407407,3.16904222 8.8562963,2.88767556 8.90567901,2.58100889 C8.97975309,2.01904222 9.42419753,1.60989778 9.96740741,1.60989778 C10.5106173,1.60989778 10.9797531,2.01904222 11.0291358,2.58100889 C11.0538272,2.91348667 11.2760494,3.16904222 11.597037,3.24545333 C14.2390123,3.98656444 16.1155556,6.51656444 16.1155556,9.35323111 L16.1155556,16.9690422 C16.1155556,17.1732311 16.1896296,17.3776756 16.3377778,17.5312644 L17.3748148,18.6043422 L2.56,18.6043422 Z M11.0044444,20.2912644 C11.0044444,20.9043422 10.5353086,21.3898978 9.94271605,21.3898978 C9.35012346,21.3898978 8.88098765,20.9043422 8.88098765,20.2912644 L8.88098765,20.1887867 L11.0538272,20.1887867 C11.0291358,20.2398978 11.0044444,20.2654533 11.0044444,20.2912644 L11.0044444,20.2912644 Z M19.6958025,18.8598978 L17.597037,16.63682 L17.597037,9.35323111 C17.597037,5.95434222 15.4735802,2.93878667 12.4118519,1.83989778 C12.0661728,0.766564444 11.0785185,-0.00010222222 9.94271605,-0.00010222222 C8.80691358,-0.00010222222 7.81925926,0.766564444 7.47358025,1.83989778 C4.38716049,2.91348667 2.28839506,5.95434222 2.28839506,9.35323111 L2.28839506,16.63682 L0.214320988,18.8343422 C-0.00790123457,19.0645978 -0.0572839506,19.39682 0.0661728395,19.7034867 C0.18962963,20.0098978 0.461234568,20.1887867 0.782222222,20.1887867 L7.37481481,20.1887867 L7.37481481,20.2912644 C7.3254321,21.7987867 8.51061728,22.9998978 9.94271605,22.9998978 C11.3748148,22.9998978 12.56,21.7987867 12.56,20.2912644 L12.56,20.1887867 L19.1525926,20.1887867 C19.4488889,20.1887867 19.7451852,20.0098978 19.868642,19.7034867 C19.9674074,19.42212 19.8933333,19.0898978 19.6958025,18.8598978 L19.6958025,18.8598978 Z" id="Fill-1"></path>
                </g>
            </g>
        </g>
    </g>
</svg>