<?xml version="1.0" encoding="UTF-8"?>
<svg width="22px" height="23px" viewBox="0 0 22 23" version="1.1" xmlns="http://www.w3.org/2000/svg" xmlns:xlink="http://www.w3.org/1999/xlink">
    <!-- Generator: Sketch 44.1 (41455) - http://www.bohemiancoding.com/sketch -->
    <title>Page 1</title>
    <desc>Created with Sketch.</desc>
    <defs></defs>
    <g id="REDE-SOCIAL----APP-" stroke="none" stroke-width="1" fill="none" fill-rule="evenodd">
        <g id="feed" transform="translate(-36.000000, -1790.000000)" fill="#FFFFFF">
            <g id="tab-bar" transform="translate(0.000000, 1784.000000)">
                <g id="Page-1" transform="translate(36.000000, 6.000000)">
                    <path d="M11,1.6878 L20.4651163,8.6253 L20.4651163,21.50005 L15.0930233,21.50005 L15.0930233,12.7503 C15.0930233,12.35755 14.7274651,12.0003 14.3255814,12.0003 L7.6744186,12.0003 C7.27253488,12.0003 6.90697674,12.35755 6.90697674,12.7503 L6.90697674,21.50005 L1.53488372,21.50005 L1.53488372,8.6253 L11,1.6878 Z M10.5364651,0.1488 L0.303651163,7.64855 C0.114860465,7.7888 -0.00127906977,8.0183 7.04724822e-14,8.2503 L7.04724822e-14,22.25005 C7.04724822e-14,22.6428 0.36555814,23.00005 0.76744186,23.00005 L7.6744186,23.00005 C8.07630233,23.00005 8.44186047,22.6428 8.44186047,22.25005 L8.44186047,13.5003 L13.5581395,13.5003 L13.5581395,22.25005 C13.5581395,22.6428 13.9239535,23.00005 14.3255814,23.00005 L21.2325581,23.00005 C21.6344419,23.00005 22,22.6428 22,22.25005 L22,8.2503 C22,8.0183 21.8853953,7.7888 21.6963488,7.64855 L11.4635349,0.1488 C11.1284186,-0.0592 10.8365349,-0.0397 10.5364651,0.1488 L10.5364651,0.1488 Z" id="Fill-1"></path>
                </g>
            </g>
        </g>
    </g>
</svg>