<?xml version="1.0" encoding="UTF-8"?>
<svg width="25px" height="25px" viewBox="0 0 25 25" version="1.1" xmlns="http://www.w3.org/2000/svg" xmlns:xlink="http://www.w3.org/1999/xlink">
    <!-- Generator: Sketch 44.1 (41455) - http://www.bohemiancoding.com/sketch -->
    <title>benefícios</title>
    <desc>Created with Sketch.</desc>
    <defs></defs>
    <g id="REDE-SOCIAL----APP-" stroke="none" stroke-width="1" fill="none" fill-rule="evenodd">
        <g id="Benefícios" transform="translate(-120.000000, -1092.000000)" fill="#FFFFFF">
            <g id="tab-bar" transform="translate(0.000000, 1085.000000)">
                <g id="benefícios" transform="translate(120.000000, 7.000000)">
                    <path d="M1.92461791,12.5100164 C1.92461791,6.67339322 6.67339322,1.92461791 12.5100164,1.92461791 C18.3470284,1.92461791 23.0954149,6.67339322 23.0954149,12.5100164 C23.0954149,18.3469312 18.3470284,23.0953177 12.5100164,23.0953177 C6.67339322,23.0953177 1.92461791,18.3469312 1.92461791,12.5100164 M14.8706875,24.7716935 C20.6325323,23.6606799 24.9983212,18.580476 24.9983212,12.4991606 C24.9983212,5.60717545 19.3914559,0 12.4991606,0 C5.60727884,0 0,5.60717545 0,12.4991606 C0,15.2906519 0.920054843,17.8712305 2.4728477,19.9539931 L3.37108756,21.0278901 C5.6537003,23.4692043 8.90113514,24.9982178 12.4991606,24.9982178 C12.8707391,24.9982178 14.8706875,24.7716935 14.8706875,24.7716935" id="Fill-1"></path>
                    <rect id="Rectangle-13" transform="translate(12.514778, 12.514778) rotate(-315.000000) translate(-12.514778, -12.514778) " x="11.7735377" y="5.23013637" width="1.48247978" height="14.5692825" rx="0.741239892"></rect>
                    <path d="M15.3457162,14.4510356 C15.2906573,14.4510356 15.2346959,14.4555334 15.179637,14.4643041 C14.9059222,14.5079328 14.6658295,14.6554609 14.5033607,14.8792267 C14.3408919,15.1029925 14.2756787,15.3764591 14.3196807,15.649251 C14.4009151,16.1536799 14.8310061,16.5198012 15.3423314,16.5198012 C15.3973903,16.5198012 15.4533518,16.5155283 15.5084106,16.5067576 C16.0732153,16.4161268 16.4593044,15.8844862 16.3685926,15.321361 C16.2875839,14.817157 15.8574929,14.4510356 15.3457162,14.4510356 M15.3459434,13.3121254 C16.4218824,13.3121254 17.3264015,14.081167 17.4968072,15.1410948 C17.6872456,16.3238469 16.876551,17.4408905 15.6892904,17.6309396 C15.5744188,17.6493885 15.4575185,17.6584866 15.3418861,17.6584866 C14.2662006,17.6584866 13.3616815,16.8891923 13.1912759,15.8292644 C13.0989729,15.2560846 13.2361595,14.6816411 13.5774779,14.211573 C13.9187963,13.7415048 14.4234201,13.4316642 14.9985391,13.3399251 C15.1136643,13.3212235 15.2305646,13.3121254 15.3459434,13.3121254 M9.65818033,8.48042364 C9.60289581,8.48042364 9.54693434,8.48492145 9.49187548,8.49369217 C9.21838635,8.53732088 8.97829358,8.6848489 8.81582479,8.90861473 C8.65313035,9.13238055 8.58791718,9.40584713 8.63191915,9.67863903 C8.72172828,10.2374914 9.25403922,10.6265516 9.82110042,10.5359208 C10.3859051,10.4457398 10.7717685,9.91387426 10.6812824,9.35074901 C10.5998224,8.84654501 10.1697314,8.48042364 9.65818033,8.48042364 M9.6584317,7.34501348 C10.7323847,7.34501348 11.635447,8.11281647 11.8055782,9.17103721 C11.9957099,10.352389 11.186321,11.4673813 10.0009726,11.6568719 C9.88628595,11.6752911 9.76982711,11.6843746 9.65438096,11.6843746 C8.58042795,11.6843746 7.67711246,10.9163193 7.50698129,9.85809851 C7.4148269,9.28609412 7.55179262,8.7123235 7.89256131,8.24301244 C8.23332999,7.77370138 8.73739421,7.46435978 9.31133374,7.37276843 C9.42627354,7.35409692 9.54298555,7.34501348 9.6584317,7.34501348" id="Page-1"></path>
                </g>
            </g>
        </g>
    </g>
</svg>