<?xml version="1.0" encoding="UTF-8"?>
<svg width="25px" height="25px" viewBox="0 0 25 25" version="1.1" xmlns="http://www.w3.org/2000/svg" xmlns:xlink="http://www.w3.org/1999/xlink">
    <!-- Generator: Sketch 44.1 (41455) - http://www.bohemiancoding.com/sketch -->
    <title>benefícios</title>
    <desc>Created with Sketch.</desc>
    <defs></defs>
    <g id="REDE-SOCIAL----APP-" stroke="none" stroke-width="1" fill="none" fill-rule="evenodd">
        <g id="feed" transform="translate(-117.000000, -1791.000000)" fill="#7B7B7B">
            <g id="tab-bar" transform="translate(0.000000, 1784.000000)">
                <g id="benefícios" transform="translate(117.000000, 7.000000)">
                    <path d="M1.92461791,12.5100164 C1.92461791,6.67339322 6.67339322,1.92461791 12.5100164,1.92461791 C18.3470284,1.92461791 23.0954149,6.67339322 23.0954149,12.5100164 C23.0954149,18.3469312 18.3470284,23.0953177 12.5100164,23.0953177 C6.67339322,23.0953177 1.92461791,18.3469312 1.92461791,12.5100164 M14.8706875,24.7716935 C20.6325323,23.6606799 24.9983212,18.580476 24.9983212,12.4991606 C24.9983212,5.60717545 19.3914559,0 12.4991606,0 C5.60727884,0 0,5.60717545 0,12.4991606 C0,15.2906519 0.920054843,17.8712305 2.4728477,19.9539931 L3.37108756,21.0278901 C5.6537003,23.4692043 8.90113514,24.9982178 12.4991606,24.9982178 C12.8707391,24.9982178 14.8706875,24.7716935 14.8706875,24.7716935" id="Fill-1"></path>
                    <g id="Group" transform="translate(6.730769, 6.730769)">
                        <rect id="Rectangle-13" transform="translate(5.784008, 5.784008) rotate(-315.000000) translate(-5.784008, -5.784008) " x="5.04276851" y="-1.50063286" width="1.48247978" height="14.5692825" rx="0.741239892"></rect>
                        <path d="M8.61494698,7.72026636 C8.55988811,7.72026636 8.50392664,7.72476417 8.44886777,7.73353489 C8.17515299,7.7771636 7.93506022,7.92469163 7.77259144,8.14845745 C7.61012265,8.37222328 7.54490948,8.64568985 7.58891144,8.91848176 C7.67014584,9.42291065 8.10023683,9.78903202 8.61156221,9.78903202 C8.66662108,9.78903202 8.72258255,9.7847591 8.77764142,9.77598838 C9.34244611,9.6853576 9.72853514,9.15371699 9.63782339,8.59059173 C9.55681465,8.08638773 9.12672366,7.72026636 8.61494698,7.72026636 M8.61517415,6.58135615 C9.6911132,6.58135615 10.5956323,7.35039773 10.7660379,8.41032556 C10.9564763,9.59307765 10.1457818,10.7101213 8.95852118,10.9001703 C8.84364954,10.9186192 8.72674926,10.9277173 8.61111687,10.9277173 C7.5354314,10.9277173 6.63091229,10.158423 6.46050667,9.09849521 C6.36820363,8.52531535 6.5053903,7.95087187 6.84670869,7.48080373 C7.18802709,7.0107356 7.69265087,6.70089499 8.26776984,6.60915588 C8.38289506,6.59045425 8.49979534,6.58135615 8.61517415,6.58135615 M2.9274111,1.74965441 C2.87212658,1.74965441 2.81616511,1.75415222 2.76110624,1.76292294 C2.48761712,1.80655165 2.24752435,1.95407967 2.08505556,2.1778455 C1.92236112,2.40161132 1.85714795,2.6750779 1.90114992,2.9478698 C1.99095905,3.50672214 2.52326999,3.89578232 3.09033119,3.80515154 C3.65513589,3.71497054 4.04099926,3.18310503 3.95051317,2.61997978 C3.86905313,2.11577578 3.43896214,1.74965441 2.9274111,1.74965441 M2.92766247,0.614244246 C4.00161548,0.614244246 4.9046778,1.38204724 5.07480897,2.44026798 C5.26494068,3.6216198 4.45555177,4.73661205 3.27020335,4.9261027 C3.15551672,4.9445219 3.03905788,4.95360534 2.92361173,4.95360534 C1.84965872,4.95360534 0.946343227,4.18555003 0.776212058,3.12732928 C0.684057674,2.55532489 0.821023393,1.98155427 1.16179207,1.51224321 C1.50256076,1.04293215 2.00662498,0.733590554 2.58056451,0.641999202 C2.69550431,0.623327686 2.81221632,0.614244246 2.92766247,0.614244246" id="Page-1"></path>
                    </g>
                </g>
            </g>
        </g>
    </g>
</svg>