<?xml version="1.0" encoding="UTF-8"?>
<svg width="22px" height="22px" viewBox="0 0 22 22" version="1.1" xmlns="http://www.w3.org/2000/svg" xmlns:xlink="http://www.w3.org/1999/xlink">
    <!-- Generator: Sketch 44.1 (41455) - http://www.bohemiancoding.com/sketch -->
    <title>minha conta</title>
    <desc>Created with Sketch.</desc>
    <defs></defs>
    <g id="REDE-SOCIAL----APP-" stroke="none" stroke-width="1" fill="none" fill-rule="evenodd" stroke-linecap="round" stroke-linejoin="round">
        <g id="minha-COnta.userempresa" transform="translate(-213.000000, -1141.000000)" stroke="#FFFFFF" stroke-width="1.7">
            <g id="tab-bar" transform="translate(0.000000, 1133.000000)">
                <g id="minha-conta" transform="translate(214.000000, 9.000000)">
                    <polyline id="Path-2" points="13.3333333 0 20 0 20 6.66666667"></polyline>
                    <polyline id="Path-2-Copy-2" transform="translate(3.333333, 3.333333) rotate(-90.000000) translate(-3.333333, -3.333333) " points="-1.58095759e-13 -4.4408921e-16 6.66666667 -4.4408921e-16 6.66666667 6.66666667"></polyline>
                    <polyline id="Path-2-Copy" transform="translate(16.666667, 16.666667) rotate(-270.000000) translate(-16.666667, -16.666667) " points="13.3333333 13.3333333 20 13.3333333 20 20"></polyline>
                    <polyline id="Path-2-Copy-3" transform="translate(3.333333, 16.666667) rotate(-180.000000) translate(-3.333333, -16.666667) " points="-4.35207426e-13 13.3333333 6.66666667 13.3333333 6.66666667 20"></polyline>
                    <path d="M10.24,10.0266667 L10.24,4.8 L10.0266667,4.8 L10.0266667,10.0266667 L4.8,10.0266667 L4.8,10.24 L10.0266667,10.24 L10.0266667,15.4666667 L10.24,15.4666667 L10.24,10.24 L15.4666667,10.24 L15.4666667,10.0266667 L10.24,10.0266667 Z" id="Combined-Shape"></path>
                </g>
            </g>
        </g>
    </g>
</svg>