<?xml version="1.0" encoding="UTF-8"?>
<svg width="20px" height="20px" viewBox="0 0 20 20" version="1.1" xmlns="http://www.w3.org/2000/svg" xmlns:xlink="http://www.w3.org/1999/xlink">
    <!-- Generator: Sketch 44.1 (41455) - http://www.bohemiancoding.com/sketch -->
    <title>busca</title>
    <desc>Created with Sketch.</desc>
    <defs>
        <polygon id="path-1" points="7.14285714e-05 0 19.8928571 0 19.8928571 19.8928214 7.14285714e-05 19.8928214 7.14285714e-05 0"></polygon>
    </defs>
    <g id="REDE-SOCIAL----APP-" stroke="none" stroke-width="1" fill="none" fill-rule="evenodd">
        <g id="feed" transform="translate(-270.000000, -28.000000)">
            <g id="nav-bar" transform="translate(8.000000, 16.000000)">
                <g id="busca" transform="translate(262.000000, 12.000000)">
                    <mask id="mask-2" fill="white">
                        <use xlink:href="#path-1"></use>
                    </mask>
                    <g id="Clip-2"></g>
                    <path d="M15.7143571,8.96425 C15.7143571,12.71425 12.6786429,15.7499643 8.92864286,15.7499643 C5.17864286,15.7499643 2.14292857,12.71425 2.14292857,8.96425 C2.14292857,5.21425 5.17864286,2.17853571 8.92864286,2.17853571 C12.6786429,2.17853571 15.7143571,5.21425 15.7143571,8.96425 M19.5715,18.0713929 L15.9286429,14.4285357 C17.1786429,12.8213929 17.8572143,10.8928214 17.8572143,8.92853571 C17.8572143,3.99996429 13.8572143,-3.57142857e-05 8.92864286,-3.57142857e-05 C4.00007143,-3.57142857e-05 7.14285714e-05,3.99996429 7.14285714e-05,8.92853571 C7.14285714e-05,13.8571071 4.00007143,17.8571071 8.92864286,17.8571071 C10.9286429,17.8571071 12.8929286,17.1785357 14.4282857,15.9285357 L18.0715,19.5713929 C18.2857857,19.7856786 18.5354286,19.8928214 18.8215,19.8928214 C19.1072143,19.8928214 19.3572143,19.7856786 19.5715,19.5713929 C20.0000714,19.1428214 20.0000714,18.4999643 19.5715,18.0713929" id="Fill-1" fill="#000000" mask="url(#mask-2)"></path>
                </g>
            </g>
        </g>
    </g>
</svg>