<?xml version="1.0" encoding="UTF-8"?>
<svg width="181px" height="90px" viewBox="0 0 181 90" version="1.1" xmlns="http://www.w3.org/2000/svg" xmlns:xlink="http://www.w3.org/1999/xlink">
    <!-- Generator: Sketch 44.1 (41455) - http://www.bohemiancoding.com/sketch -->
    <title>ornamento</title>
    <desc>Created with Sketch.</desc>
    <defs></defs>
    <g id="REDE-SOCIAL----APP-" stroke="none" stroke-width="1" fill="none" fill-rule="evenodd" opacity="0.074811099">
        <g id="feed" transform="translate(-8.000000, -16.000000)" fill="#E1495F">
            <g id="nav-bar" transform="translate(8.000000, 16.000000)">
                <g id="ornamento" transform="translate(90.500000, 45.000000) rotate(-270.000000) translate(-90.500000, -45.000000) translate(45.500000, -45.500000)">
                    <polygon id="Fill-1" style="mix-blend-mode: soft-light;" points="18.4916581 52.2474227 12.3281768 58.1899616 6.16348127 64.1336712 -5.67360407e-15 70.0762101 6.16348127 76.0199197 12.3281768 70.0762101 18.4916581 64.1336712 24.6563536 70.0762101 30.8198348 76.0199197 36.9833161 70.0762101 30.8198348 64.1336712 24.6563536 58.1899616"></polygon>
                    <polygon id="Fill-1-Copy" style="mix-blend-mode: soft-light;" points="18.4916581 0 12.3281768 5.94253889 6.16348127 11.8862485 -1.42108547e-14 17.8287874 6.16348127 23.772497 12.3281768 17.8287874 18.4916581 11.8862485 24.6563536 17.8287874 30.8198348 23.772497 36.9833161 17.8287874 30.8198348 11.8862485 24.6563536 5.94253889"></polygon>
                    <polygon id="Fill-2" style="mix-blend-mode: soft-light;" points="70.5969212 52.2474227 64.4334399 58.1899616 58.2687444 64.1336712 52.1052632 70.0762101 58.2687444 76.0199197 64.4334399 70.0762101 70.5969212 64.1336712 76.7604025 70.0762101 82.925098 76.0199197 89.0885793 70.0762101 82.925098 64.1336712 76.7604025 58.1899616"></polygon>
                    <polygon id="Fill-2-Copy" style="mix-blend-mode: soft-light;" points="70.5969212 -2.04636308e-12 64.4334399 5.94253889 58.2687444 11.8862485 52.1052632 17.8287874 58.2687444 23.772497 64.4334399 17.8287874 70.5969212 11.8862485 76.7604025 17.8287874 82.925098 23.772497 89.0885793 17.8287874 82.925098 11.8862485 76.7604025 5.94253889"></polygon>
                    <polygon id="Fill-3" style="mix-blend-mode: soft-light;" points="12.3281768 110.146838 6.16348127 116.089377 6.30918532e-15 122.033087 6.16348127 127.975626 12.3281768 122.033087 18.4916581 116.089377 24.6563536 122.033087 30.8198348 127.975626 36.9833161 122.033087 30.8198348 116.089377 24.6563536 110.146838 18.4916581 104.203129"></polygon>
                    <polygon id="Fill-4" style="mix-blend-mode: soft-light;" points="64.9914919 110.146838 58.8267964 116.089377 52.6633152 122.033087 58.8267964 127.975626 64.9914919 122.033087 71.1549732 116.089377 77.3184545 122.033087 83.48315 127.975626 89.6466313 122.033087 83.48315 116.089377 77.3184545 110.146838 71.1549732 104.203129"></polygon>
                    <polygon id="Fill-5" style="mix-blend-mode: soft-light;" points="12.3281768 162.694621 6.16348127 168.63716 1.49567864e-14 174.580869 6.16348127 180.523408 12.3281768 174.580869 18.4916581 168.63716 24.6563536 174.580869 30.8198348 180.523408 36.9833161 174.580869 30.8198348 168.63716 24.6563536 162.694621 18.4916581 156.750911"></polygon>
                    <polygon id="Fill-6" style="mix-blend-mode: soft-light;" points="64.6643906 162.694621 58.4996951 168.63716 52.3362138 174.580869 58.4996951 180.523408 64.6643906 174.580869 70.8278719 168.63716 76.9913531 174.580869 83.1560487 180.523408 89.3195299 174.580869 83.1560487 168.63716 76.9913531 162.694621 70.8278719 156.750911"></polygon>
                </g>
            </g>
        </g>
    </g>
</svg>