<?xml version="1.0" encoding="UTF-8"?>
<svg width="76px" height="76px" viewBox="0 0 76 76" version="1.1" xmlns="http://www.w3.org/2000/svg" xmlns:xlink="http://www.w3.org/1999/xlink">
    <!-- Generator: Sketch 44.1 (41455) - http://www.bohemiancoding.com/sketch -->
    <title>Group 14</title>
    <desc>Created with Sketch.</desc>
    <defs></defs>
    <g id="REDE-SOCIAL----APP-" stroke="none" stroke-width="1" fill="none" fill-rule="evenodd" opacity="0.2">
        <g id="Benefícios" transform="translate(-289.000000, -280.000000)" fill="#FFFFFF">
            <g id="Be-Free" transform="translate(0.000000, 199.000000)">
                <g id="Group-14" transform="translate(289.000000, 81.000000)">
                    <polygon id="Fill-18" points="72.5813396 65.7909005 69.1922043 65.7909005 69.1922043 62.4003873 69.1922043 59.0098741 65.8030691 59.0098741 65.8030691 62.4003873 65.8030691 65.7909005 62.4139339 65.7909005 59.0247987 65.7909005 59.0247987 69.1814137 62.4139339 69.1814137 65.8030691 69.1814137 65.8030691 72.5719269 65.8030691 75.9624401 69.1922043 75.9624401 69.1922043 72.5719269 69.1922043 69.1814137 72.5813396 69.1814137 75.9704748 69.1814137 75.9704748 65.7909005"></polygon>
                    <polygon id="Fill-18-Copy-3" points="42.823079 36.4340179 39.4339438 36.4340179 39.4339438 33.0435047 39.4339438 29.6529915 36.0448086 29.6529915 36.0448086 33.0435047 36.0448086 36.4340179 32.6556733 36.4340179 29.2665381 36.4340179 29.2665381 39.8245311 32.6556733 39.8245311 36.0448086 39.8245311 36.0448086 43.2150443 36.0448086 46.6055575 39.4339438 46.6055575 39.4339438 43.2150443 39.4339438 39.8245311 42.823079 39.8245311 46.2122143 39.8245311 46.2122143 36.4340179"></polygon>
                    <polygon id="Fill-18-Copy-2" points="43.2363882 65.7909005 39.847253 65.7909005 39.847253 62.4003873 39.847253 59.0098741 36.4581177 59.0098741 36.4581177 62.4003873 36.4581177 65.7909005 33.0689825 65.7909005 29.6798473 65.7909005 29.6798473 69.1814137 33.0689825 69.1814137 36.4581177 69.1814137 36.4581177 72.5719269 36.4581177 75.9624401 39.847253 75.9624401 39.847253 72.5719269 39.847253 69.1814137 43.2363882 69.1814137 46.6255234 69.1814137 46.6255234 65.7909005"></polygon>
                    <polygon id="Fill-18-Copy-5" points="13.8914368 65.7909005 10.5023016 65.7909005 10.5023016 62.4003873 10.5023016 59.0098741 7.11316636 59.0098741 7.11316636 62.4003873 7.11316636 65.7909005 3.72403113 65.7909005 0.334895898 65.7909005 0.334895898 69.1814137 3.72403113 69.1814137 7.11316636 69.1814137 7.11316636 72.5719269 7.11316636 75.9624401 10.5023016 75.9624401 10.5023016 72.5719269 10.5023016 69.1814137 13.8914368 69.1814137 17.280572 69.1814137 17.280572 65.7909005"></polygon>
                    <polygon id="Fill-18-Copy" points="72.5813396 36.4340179 69.1922043 36.4340179 69.1922043 33.0435047 69.1922043 29.6529915 65.8030691 29.6529915 65.8030691 33.0435047 65.8030691 36.4340179 62.4139339 36.4340179 59.0247987 36.4340179 59.0247987 39.8245311 62.4139339 39.8245311 65.8030691 39.8245311 65.8030691 43.2150443 65.8030691 46.6055575 69.1922043 46.6055575 69.1922043 43.2150443 69.1922043 39.8245311 72.5813396 39.8245311 75.9704748 39.8245311 75.9704748 36.4340179"></polygon>
                    <polygon id="Fill-18-Copy-4" points="72.5813396 7.07713532 69.1922043 7.07713532 69.1922043 3.68662212 69.1922043 0.296108915 65.8030691 0.296108915 65.8030691 3.68662212 65.8030691 7.07713532 62.4139339 7.07713532 59.0247987 7.07713532 59.0247987 10.4676485 62.4139339 10.4676485 65.8030691 10.4676485 65.8030691 13.8581617 65.8030691 17.2486749 69.1922043 17.2486749 69.1922043 13.8581617 69.1922043 10.4676485 72.5813396 10.4676485 75.9704748 10.4676485 75.9704748 7.07713532"></polygon>
                </g>
            </g>
        </g>
    </g>
</svg>